<svg width="147" height="3362" viewBox="0 0 147 3362" fill="none" xmlns="http://www.w3.org/2000/svg">
<path d="M111.676 37.7028L118.201 62.2974L118.26 62.5196L118.467 62.6195L141.385 73.6756L116.79 80.2008L116.568 80.2598L116.468 80.4669L105.412 103.385L98.887 78.7903L98.828 78.5681L98.621 78.4682L75.7029 67.4121L100.298 60.8869L100.52 60.8279L100.62 60.6209L111.676 37.7028Z" stroke="#BCEC30"/>
<path d="M49.5959 3.5971L52.4149 15.5957L52.4675 15.8195L52.6716 15.9252L63.6151 21.5956L51.6165 24.4146L51.3927 24.4671L51.2869 24.6713L45.6166 35.6148L42.7976 23.6162L42.745 23.3924L42.5409 23.2866L31.5974 17.6163L43.596 14.7973L43.8198 14.7447L43.9256 14.5406L49.5959 3.5971Z" stroke="#BCEC30"/>
<path d="M104.5 3274.44L113.349 3298.36L113.429 3298.57L113.645 3298.65L137.559 3307.5L113.645 3316.35L113.429 3316.43L113.349 3316.64L104.5 3340.56L95.6508 3316.64L95.571 3316.43L95.3554 3316.35L71.4408 3307.5L95.3554 3298.65L95.571 3298.57L95.6508 3298.36L104.5 3274.44Z" stroke="#BCEC30"/>
<path d="M20.5 3322.44L25.5679 3336.14L25.6477 3336.35L25.8633 3336.43L39.5592 3341.5L25.8633 3346.57L25.6477 3346.65L25.5679 3346.86L20.5 3360.56L15.4321 3346.86L15.3523 3346.65L15.1367 3346.57L1.44077 3341.5L15.1367 3336.43L15.3523 3336.35L15.4321 3336.14L20.5 3322.44Z" stroke="#BCEC30"/>
</svg>
