<svg width="1558" height="805" viewBox="0 0 1558 805" fill="none" xmlns="http://www.w3.org/2000/svg">
<path d="M1268.57 219.338L1268.78 219.897L1269.3 219.587L1436.84 118.279L1337.53 287.019L1337.23 287.534L1337.79 287.742L1521.46 355.57L1327.62 383.135L1327.03 383.22L1327.21 383.787L1388.7 569.677L1246.29 435.31L1245.85 434.9L1245.53 435.401L1138.53 599.373L1154.79 404.254L1154.84 403.658L1154.24 403.715L959.331 422.295L1122.02 313.354L1122.52 313.021L1122.1 312.591L986.048 171.788L1172.66 231.059L1173.23 231.24L1173.3 230.646L1198.56 36.488L1268.57 219.338Z" stroke="#BCEC30"/>
<path d="M18.4367 695.922L21.2175 706.403L21.2765 706.625L21.4836 706.725L31.2505 711.437L20.7691 714.218L20.5469 714.277L20.447 714.484L15.7352 724.251L12.9544 713.769L12.8954 713.547L12.6883 713.447L2.92137 708.736L13.4028 705.955L13.6251 705.896L13.7249 705.689L18.4367 695.922Z" stroke="#BCEC30"/>
<path d="M47.2217 749.026L52.3236 768.256L52.3826 768.478L52.5896 768.578L70.5086 777.222L51.2788 782.324L51.0566 782.383L50.9567 782.59L42.3123 800.509L37.2104 781.279L37.1514 781.057L36.9443 780.957L19.0254 772.313L38.2552 767.211L38.4774 767.152L38.5773 766.945L47.2217 749.026Z" stroke="#BCEC30"/>
</svg>
